<svg width="100%" viewBox="0 0 680 620" xmlns="http://www.w3.org/2000/svg">
<defs>
  <marker id="arrow" viewBox="0 0 10 10" refX="8" refY="5" markerWidth="6" markerHeight="6" orient="auto-start-reverse">
    <path d="M2 1L8 5L2 9" fill="none" stroke="context-stroke" stroke-width="1.5" stroke-linecap="round" stroke-linejoin="round"/>
  </marker>
<mask id="imagine-text-gaps-87gtef" maskUnits="userSpaceOnUse"><rect x="0" y="0" width="680" height="620" fill="white"/><rect x="55.999996185302734" y="22.49618148803711" width="191.1153564453125" height="21.362049102783203" fill="black" rx="2"/><rect x="556" y="24.4252986907959" width="64.78836822509766" height="18.46837329864502" fill="black" rx="2"/><rect x="65.33465576171875" y="138.4961700439453" width="139.33062744140625" height="21.362049102783203" fill="black" rx="2"/><rect x="55.999996185302734" y="162.42530822753906" width="118.77348327636719" height="18.46837329864502" fill="black" rx="2"/><rect x="55.999996185302734" y="180.42530822753906" width="127.54493713378906" height="18.46837329864502" fill="black" rx="2"/><rect x="83.49549865722656" y="264.42529296875" width="103.00898742675781" height="18.46837329864502" fill="black" rx="2"/><rect x="74.10610961914062" y="348.42529296875" width="121.78772735595703" height="18.46837329864502" fill="black" rx="2"/><rect x="278.57861328125" y="138.4961700439453" width="122.84271240234375" height="21.362049102783203" fill="black" rx="2"/><rect x="261" y="162.42530822753906" width="104.5763931274414" height="18.46837329864502" fill="black" rx="2"/><rect x="261" y="180.42530822753906" width="129.35348510742188" height="18.46837329864502" fill="black" rx="2"/><rect x="284.10223388671875" y="264.42529296875" width="111.7955093383789" height="18.46837329864502" fill="black" rx="2"/><rect x="275.4438171386719" y="348.42529296875" width="129.11234283447266" height="18.46837329864502" fill="black" rx="2"/><rect x="500.7748718261719" y="138.4961700439453" width="88.45018768310547" height="21.362049102783203" fill="black" rx="2"/><rect x="466" y="162.42530822753906" width="120.5518569946289" height="18.46837329864502" fill="black" rx="2"/><rect x="466" y="180.42530822753906" width="129.17259979248047" height="18.46837329864502" fill="black" rx="2"/><rect x="479.1853332519531" y="264.42529296875" width="131.62924194335938" height="18.46837329864502" fill="black" rx="2"/><rect x="484.1889953613281" y="348.42529296875" width="121.6219482421875" height="18.46837329864502" fill="black" rx="2"/><rect x="213.74224853515625" y="402.42529296875" width="252.51551818847656" height="18.46837329864502" fill="black" rx="2"/><rect x="271.65338134765625" y="439.3189392089844" width="136.69317626953125" height="21.362049102783203" fill="black" rx="2"/><rect x="248.33070373535156" y="458.76580810546875" width="183.33860778808594" height="18.46837329864502" fill="black" rx="2"/><rect x="55.999996185302734" y="518.4961547851562" width="215.19918823242188" height="21.362049102783203" fill="black" rx="2"/><rect x="55.999996185302734" y="542.42529296875" width="398.9776611328125" height="18.46837329864502" fill="black" rx="2"/><rect x="55.999996185302734" y="558.42529296875" width="386.40826416015625" height="18.46837329864502" fill="black" rx="2"/><rect x="55.999996185302734" y="574.42529296875" width="331.4133605957031" height="18.46837329864502" fill="black" rx="2"/></mask></defs>

<rect x="40" y="20" width="600" height="70" rx="6" fill="#E6F1FB" stroke="#85B7EB" stroke-width="0.5" style="fill:rgb(230, 241, 251);stroke:rgb(133, 183, 235);color:rgb(255, 255, 255);stroke-width:0.5px;stroke-linecap:butt;stroke-linejoin:miter;opacity:1;font-family:&quot;Anthropic Sans&quot;, -apple-system, BlinkMacSystemFont, &quot;Segoe UI&quot;, sans-serif;font-size:16px;font-weight:400;text-anchor:start;dominant-baseline:auto"/>
<text x="60" y="38" style="fill:rgb(250, 249, 245);stroke:none;color:rgb(255, 255, 255);stroke-width:1px;stroke-linecap:butt;stroke-linejoin:miter;opacity:1;font-family:&quot;Anthropic Sans&quot;, -apple-system, BlinkMacSystemFont, &quot;Segoe UI&quot;, sans-serif;font-size:14px;font-weight:500;text-anchor:start;dominant-baseline:auto">Original ECG (1 lead shown)</text>
<path d="M60 62 Q72 42,84 62 Q90 72,96 56 Q102 44,108 62 L120 62 Q132 42,144 62 Q150 72,156 56 Q162 44,168 62 L180 62 Q192 42,204 62 Q210 72,216 56 Q222 44,228 62 L240 62 Q252 42,264 62 Q270 72,276 56 Q282 44,288 62 L300 62 Q312 42,324 62 Q330 72,336 56 Q342 44,348 62 L360 62 Q372 42,384 62 Q390 72,396 56 Q402 44,408 62 L420 62 Q432 42,444 62 Q450 72,456 56 Q462 44,468 62 L480 62 Q492 42,504 62 Q510 72,516 56 Q522 44,528 62 L540 62 Q552 42,564 62 Q570 72,576 56 Q582 44,588 62 L600 62 Q608 42,616 62" fill="none" stroke="#378ADD" stroke-width="1.4" style="fill:none;stroke:rgb(55, 138, 221);color:rgb(255, 255, 255);stroke-width:1.4px;stroke-linecap:butt;stroke-linejoin:miter;opacity:1;font-family:&quot;Anthropic Sans&quot;, -apple-system, BlinkMacSystemFont, &quot;Segoe UI&quot;, sans-serif;font-size:16px;font-weight:400;text-anchor:start;dominant-baseline:auto"/>
<text x="560" y="38" style="fill:rgb(194, 192, 182);stroke:none;color:rgb(255, 255, 255);stroke-width:1px;stroke-linecap:butt;stroke-linejoin:miter;opacity:1;font-family:&quot;Anthropic Sans&quot;, -apple-system, BlinkMacSystemFont, &quot;Segoe UI&quot;, sans-serif;font-size:12px;font-weight:400;text-anchor:start;dominant-baseline:auto">10000 x 12</text>

<line x1="140" y1="90" x2="140" y2="130" marker-end="url(#arrow)" style="fill:none;stroke:rgb(156, 154, 146);color:rgb(255, 255, 255);stroke-width:1.5px;stroke-linecap:butt;stroke-linejoin:miter;opacity:1;font-family:&quot;Anthropic Sans&quot;, -apple-system, BlinkMacSystemFont, &quot;Segoe UI&quot;, sans-serif;font-size:16px;font-weight:400;text-anchor:start;dominant-baseline:auto"/>
<line x1="340" y1="90" x2="340" y2="130" marker-end="url(#arrow)" style="fill:none;stroke:rgb(156, 154, 146);color:rgb(255, 255, 255);stroke-width:1.5px;stroke-linecap:butt;stroke-linejoin:miter;opacity:1;font-family:&quot;Anthropic Sans&quot;, -apple-system, BlinkMacSystemFont, &quot;Segoe UI&quot;, sans-serif;font-size:16px;font-weight:400;text-anchor:start;dominant-baseline:auto"/>
<line x1="540" y1="90" x2="540" y2="130" marker-end="url(#arrow)" style="fill:none;stroke:rgb(156, 154, 146);color:rgb(255, 255, 255);stroke-width:1.5px;stroke-linecap:butt;stroke-linejoin:miter;opacity:1;font-family:&quot;Anthropic Sans&quot;, -apple-system, BlinkMacSystemFont, &quot;Segoe UI&quot;, sans-serif;font-size:16px;font-weight:400;text-anchor:start;dominant-baseline:auto"/>

<g style="fill:rgb(0, 0, 0);stroke:none;color:rgb(255, 255, 255);stroke-width:1px;stroke-linecap:butt;stroke-linejoin:miter;opacity:1;font-family:&quot;Anthropic Sans&quot;, -apple-system, BlinkMacSystemFont, &quot;Segoe UI&quot;, sans-serif;font-size:16px;font-weight:400;text-anchor:start;dominant-baseline:auto">
  <rect x="40" y="130" width="190" height="240" rx="10" stroke-width="0.5" style="fill:rgb(99, 56, 6);stroke:rgb(239, 159, 39);color:rgb(255, 255, 255);stroke-width:0.5px;stroke-linecap:butt;stroke-linejoin:miter;opacity:1;font-family:&quot;Anthropic Sans&quot;, -apple-system, BlinkMacSystemFont, &quot;Segoe UI&quot;, sans-serif;font-size:16px;font-weight:400;text-anchor:start;dominant-baseline:auto"/>
  <text x="135" y="154" text-anchor="middle" style="fill:rgb(250, 199, 117);stroke:none;color:rgb(255, 255, 255);stroke-width:1px;stroke-linecap:butt;stroke-linejoin:miter;opacity:1;font-family:&quot;Anthropic Sans&quot;, -apple-system, BlinkMacSystemFont, &quot;Segoe UI&quot;, sans-serif;font-size:14px;font-weight:500;text-anchor:middle;dominant-baseline:auto">1. Amplitude scaling</text>
</g>

<text x="60" y="176" style="fill:rgb(194, 192, 182);stroke:none;color:rgb(255, 255, 255);stroke-width:1px;stroke-linecap:butt;stroke-linejoin:miter;opacity:1;font-family:&quot;Anthropic Sans&quot;, -apple-system, BlinkMacSystemFont, &quot;Segoe UI&quot;, sans-serif;font-size:12px;font-weight:400;text-anchor:start;dominant-baseline:auto">scale ~ U(0.95, 1.05)</text>
<text x="60" y="194" style="fill:rgb(194, 192, 182);stroke:none;color:rgb(255, 255, 255);stroke-width:1px;stroke-linecap:butt;stroke-linejoin:miter;opacity:1;font-family:&quot;Anthropic Sans&quot;, -apple-system, BlinkMacSystemFont, &quot;Segoe UI&quot;, sans-serif;font-size:12px;font-weight:400;text-anchor:start;dominant-baseline:auto">signal = signal x scale</text>

<rect x="56" y="210" width="158" height="52" rx="4" fill="#FAEEDA" stroke="#EF9F27" stroke-width="0.5" style="fill:rgb(250, 238, 218);stroke:rgb(239, 159, 39);color:rgb(255, 255, 255);stroke-width:0.5px;stroke-linecap:butt;stroke-linejoin:miter;opacity:1;font-family:&quot;Anthropic Sans&quot;, -apple-system, BlinkMacSystemFont, &quot;Segoe UI&quot;, sans-serif;font-size:16px;font-weight:400;text-anchor:start;dominant-baseline:auto"/>
<path d="M66 240 Q76 224,86 240 Q90 248,96 234 Q100 226,106 240 L114 240 Q124 224,134 240 Q138 248,144 234 Q148 226,154 240 L162 240 Q172 224,182 240 Q186 248,192 234 Q196 226,200 240" fill="none" stroke="#BA7517" stroke-width="1.2" style="fill:none;stroke:rgb(186, 117, 23);color:rgb(255, 255, 255);stroke-width:1.2px;stroke-linecap:butt;stroke-linejoin:miter;opacity:1;font-family:&quot;Anthropic Sans&quot;, -apple-system, BlinkMacSystemFont, &quot;Segoe UI&quot;, sans-serif;font-size:16px;font-weight:400;text-anchor:start;dominant-baseline:auto"/>
<path d="M66 240 Q76 220,86 240 Q90 252,96 230 Q100 220,106 240 L114 240 Q124 220,134 240 Q138 252,144 230 Q148 220,154 240 L162 240 Q172 220,182 240 Q186 252,192 230 Q196 220,200 240" fill="none" stroke="#EF9F27" stroke-width="0.8" opacity="0.5" style="fill:none;stroke:rgb(239, 159, 39);color:rgb(255, 255, 255);stroke-width:0.8px;stroke-linecap:butt;stroke-linejoin:miter;opacity:0.5;font-family:&quot;Anthropic Sans&quot;, -apple-system, BlinkMacSystemFont, &quot;Segoe UI&quot;, sans-serif;font-size:16px;font-weight:400;text-anchor:start;dominant-baseline:auto"/>
<text x="135" y="278" text-anchor="middle" style="fill:rgb(194, 192, 182);stroke:none;color:rgb(255, 255, 255);stroke-width:1px;stroke-linecap:butt;stroke-linejoin:miter;opacity:1;font-family:&quot;Anthropic Sans&quot;, -apple-system, BlinkMacSystemFont, &quot;Segoe UI&quot;, sans-serif;font-size:12px;font-weight:400;text-anchor:middle;dominant-baseline:auto">Scaled up (x1.03)</text>

<rect x="56" y="296" width="158" height="52" rx="4" fill="#FAEEDA" stroke="#EF9F27" stroke-width="0.5" style="fill:rgb(250, 238, 218);stroke:rgb(239, 159, 39);color:rgb(255, 255, 255);stroke-width:0.5px;stroke-linecap:butt;stroke-linejoin:miter;opacity:1;font-family:&quot;Anthropic Sans&quot;, -apple-system, BlinkMacSystemFont, &quot;Segoe UI&quot;, sans-serif;font-size:16px;font-weight:400;text-anchor:start;dominant-baseline:auto"/>
<path d="M66 326 Q76 310,86 326 Q90 334,96 320 Q100 312,106 326 L114 326 Q124 310,134 326 Q138 334,144 320 Q148 312,154 326 L162 326 Q172 310,182 326 Q186 334,192 320 Q196 312,200 326" fill="none" stroke="#BA7517" stroke-width="1.2" style="fill:none;stroke:rgb(186, 117, 23);color:rgb(255, 255, 255);stroke-width:1.2px;stroke-linecap:butt;stroke-linejoin:miter;opacity:1;font-family:&quot;Anthropic Sans&quot;, -apple-system, BlinkMacSystemFont, &quot;Segoe UI&quot;, sans-serif;font-size:16px;font-weight:400;text-anchor:start;dominant-baseline:auto"/>
<path d="M66 326 Q76 316,86 326 Q90 330,96 322 Q100 318,106 326 L114 326 Q124 316,134 326 Q138 330,144 322 Q148 318,154 326 L162 326 Q172 316,182 326 Q186 330,192 322 Q196 318,200 326" fill="none" stroke="#EF9F27" stroke-width="0.8" opacity="0.5" style="fill:none;stroke:rgb(239, 159, 39);color:rgb(255, 255, 255);stroke-width:0.8px;stroke-linecap:butt;stroke-linejoin:miter;opacity:0.5;font-family:&quot;Anthropic Sans&quot;, -apple-system, BlinkMacSystemFont, &quot;Segoe UI&quot;, sans-serif;font-size:16px;font-weight:400;text-anchor:start;dominant-baseline:auto"/>
<text x="135" y="362" text-anchor="middle" style="fill:rgb(194, 192, 182);stroke:none;color:rgb(255, 255, 255);stroke-width:1px;stroke-linecap:butt;stroke-linejoin:miter;opacity:1;font-family:&quot;Anthropic Sans&quot;, -apple-system, BlinkMacSystemFont, &quot;Segoe UI&quot;, sans-serif;font-size:12px;font-weight:400;text-anchor:middle;dominant-baseline:auto">Scaled down (x0.97)</text>

<g style="fill:rgb(0, 0, 0);stroke:none;color:rgb(255, 255, 255);stroke-width:1px;stroke-linecap:butt;stroke-linejoin:miter;opacity:1;font-family:&quot;Anthropic Sans&quot;, -apple-system, BlinkMacSystemFont, &quot;Segoe UI&quot;, sans-serif;font-size:16px;font-weight:400;text-anchor:start;dominant-baseline:auto">
  <rect x="245" y="130" width="190" height="240" rx="10" stroke-width="0.5" style="fill:rgb(8, 80, 65);stroke:rgb(93, 202, 165);color:rgb(255, 255, 255);stroke-width:0.5px;stroke-linecap:butt;stroke-linejoin:miter;opacity:1;font-family:&quot;Anthropic Sans&quot;, -apple-system, BlinkMacSystemFont, &quot;Segoe UI&quot;, sans-serif;font-size:16px;font-weight:400;text-anchor:start;dominant-baseline:auto"/>
  <text x="340" y="154" text-anchor="middle" style="fill:rgb(159, 225, 203);stroke:none;color:rgb(255, 255, 255);stroke-width:1px;stroke-linecap:butt;stroke-linejoin:miter;opacity:1;font-family:&quot;Anthropic Sans&quot;, -apple-system, BlinkMacSystemFont, &quot;Segoe UI&quot;, sans-serif;font-size:14px;font-weight:500;text-anchor:middle;dominant-baseline:auto">2. Gaussian noise</text>
</g>

<text x="265" y="176" style="fill:rgb(194, 192, 182);stroke:none;color:rgb(255, 255, 255);stroke-width:1px;stroke-linecap:butt;stroke-linejoin:miter;opacity:1;font-family:&quot;Anthropic Sans&quot;, -apple-system, BlinkMacSystemFont, &quot;Segoe UI&quot;, sans-serif;font-size:12px;font-weight:400;text-anchor:start;dominant-baseline:auto">noise ~ N(0, 0.01)</text>
<text x="265" y="194" style="fill:rgb(194, 192, 182);stroke:none;color:rgb(255, 255, 255);stroke-width:1px;stroke-linecap:butt;stroke-linejoin:miter;opacity:1;font-family:&quot;Anthropic Sans&quot;, -apple-system, BlinkMacSystemFont, &quot;Segoe UI&quot;, sans-serif;font-size:12px;font-weight:400;text-anchor:start;dominant-baseline:auto">signal = signal + noise</text>

<rect x="261" y="210" width="158" height="52" rx="4" fill="#E1F5EE" stroke="#5DCAA5" stroke-width="0.5" style="fill:rgb(225, 245, 238);stroke:rgb(93, 202, 165);color:rgb(255, 255, 255);stroke-width:0.5px;stroke-linecap:butt;stroke-linejoin:miter;opacity:1;font-family:&quot;Anthropic Sans&quot;, -apple-system, BlinkMacSystemFont, &quot;Segoe UI&quot;, sans-serif;font-size:16px;font-weight:400;text-anchor:start;dominant-baseline:auto"/>
<path d="M271 240 Q281 222,291 240 Q295 249,301 234 Q305 225,311 240 L319 240 Q329 222,339 240 Q343 249,349 234 Q353 225,359 240 L367 240 Q377 222,387 240 Q391 249,397 234 Q401 225,405 240" fill="none" stroke="#0F6E56" stroke-width="1.2" style="fill:none;stroke:rgb(15, 110, 86);color:rgb(255, 255, 255);stroke-width:1.2px;stroke-linecap:butt;stroke-linejoin:miter;opacity:1;font-family:&quot;Anthropic Sans&quot;, -apple-system, BlinkMacSystemFont, &quot;Segoe UI&quot;, sans-serif;font-size:16px;font-weight:400;text-anchor:start;dominant-baseline:auto"/>
<path d="M271 238 Q275 240,279 237 Q283 233,287 239 Q291 243,295 236 Q299 230,303 238 Q307 242,311 237 Q315 233,319 240 Q323 244,327 238 Q331 232,335 239 Q339 243,343 236 Q347 231,351 238 Q355 244,359 237 Q363 232,367 240 Q371 244,375 237 Q379 232,383 239 Q387 243,391 236 Q395 231,399 238 Q403 244,405 237" fill="none" stroke="#1D9E75" stroke-width="0.6" opacity="0.5" style="fill:none;stroke:rgb(29, 158, 117);color:rgb(255, 255, 255);stroke-width:0.6px;stroke-linecap:butt;stroke-linejoin:miter;opacity:0.5;font-family:&quot;Anthropic Sans&quot;, -apple-system, BlinkMacSystemFont, &quot;Segoe UI&quot;, sans-serif;font-size:16px;font-weight:400;text-anchor:start;dominant-baseline:auto"/>
<text x="340" y="278" text-anchor="middle" style="fill:rgb(194, 192, 182);stroke:none;color:rgb(255, 255, 255);stroke-width:1px;stroke-linecap:butt;stroke-linejoin:miter;opacity:1;font-family:&quot;Anthropic Sans&quot;, -apple-system, BlinkMacSystemFont, &quot;Segoe UI&quot;, sans-serif;font-size:12px;font-weight:400;text-anchor:middle;dominant-baseline:auto">Low noise (subtle)</text>

<rect x="261" y="296" width="158" height="52" rx="4" fill="#E1F5EE" stroke="#5DCAA5" stroke-width="0.5" style="fill:rgb(225, 245, 238);stroke:rgb(93, 202, 165);color:rgb(255, 255, 255);stroke-width:0.5px;stroke-linecap:butt;stroke-linejoin:miter;opacity:1;font-family:&quot;Anthropic Sans&quot;, -apple-system, BlinkMacSystemFont, &quot;Segoe UI&quot;, sans-serif;font-size:16px;font-weight:400;text-anchor:start;dominant-baseline:auto"/>
<path d="M271 326 Q281 308,291 326 Q295 335,301 320 Q305 311,311 326 L319 326 Q329 308,339 326 Q343 335,349 320 Q353 311,359 326 L367 326 Q377 308,387 326 Q391 335,397 320 Q401 311,405 326" fill="none" stroke="#0F6E56" stroke-width="1.2" style="fill:none;stroke:rgb(15, 110, 86);color:rgb(255, 255, 255);stroke-width:1.2px;stroke-linecap:butt;stroke-linejoin:miter;opacity:1;font-family:&quot;Anthropic Sans&quot;, -apple-system, BlinkMacSystemFont, &quot;Segoe UI&quot;, sans-serif;font-size:16px;font-weight:400;text-anchor:start;dominant-baseline:auto"/>
<text x="340" y="362" text-anchor="middle" style="fill:rgb(194, 192, 182);stroke:none;color:rgb(255, 255, 255);stroke-width:1px;stroke-linecap:butt;stroke-linejoin:miter;opacity:1;font-family:&quot;Anthropic Sans&quot;, -apple-system, BlinkMacSystemFont, &quot;Segoe UI&quot;, sans-serif;font-size:12px;font-weight:400;text-anchor:middle;dominant-baseline:auto">Original for reference</text>

<g style="fill:rgb(0, 0, 0);stroke:none;color:rgb(255, 255, 255);stroke-width:1px;stroke-linecap:butt;stroke-linejoin:miter;opacity:1;font-family:&quot;Anthropic Sans&quot;, -apple-system, BlinkMacSystemFont, &quot;Segoe UI&quot;, sans-serif;font-size:16px;font-weight:400;text-anchor:start;dominant-baseline:auto">
  <rect x="450" y="130" width="190" height="240" rx="10" stroke-width="0.5" style="fill:rgb(60, 52, 137);stroke:rgb(175, 169, 236);color:rgb(255, 255, 255);stroke-width:0.5px;stroke-linecap:butt;stroke-linejoin:miter;opacity:1;font-family:&quot;Anthropic Sans&quot;, -apple-system, BlinkMacSystemFont, &quot;Segoe UI&quot;, sans-serif;font-size:16px;font-weight:400;text-anchor:start;dominant-baseline:auto"/>
  <text x="545" y="154" text-anchor="middle" style="fill:rgb(206, 203, 246);stroke:none;color:rgb(255, 255, 255);stroke-width:1px;stroke-linecap:butt;stroke-linejoin:miter;opacity:1;font-family:&quot;Anthropic Sans&quot;, -apple-system, BlinkMacSystemFont, &quot;Segoe UI&quot;, sans-serif;font-size:14px;font-weight:500;text-anchor:middle;dominant-baseline:auto">3. Time shift</text>
</g>

<text x="470" y="176" style="fill:rgb(194, 192, 182);stroke:none;color:rgb(255, 255, 255);stroke-width:1px;stroke-linecap:butt;stroke-linejoin:miter;opacity:1;font-family:&quot;Anthropic Sans&quot;, -apple-system, BlinkMacSystemFont, &quot;Segoe UI&quot;, sans-serif;font-size:12px;font-weight:400;text-anchor:start;dominant-baseline:auto">shift ~ U(-100, +100)</text>
<text x="470" y="194" style="fill:rgb(194, 192, 182);stroke:none;color:rgb(255, 255, 255);stroke-width:1px;stroke-linecap:butt;stroke-linejoin:miter;opacity:1;font-family:&quot;Anthropic Sans&quot;, -apple-system, BlinkMacSystemFont, &quot;Segoe UI&quot;, sans-serif;font-size:12px;font-weight:400;text-anchor:start;dominant-baseline:auto">circshift(signal, shift)</text>

<rect x="466" y="210" width="158" height="52" rx="4" fill="#EEEDFE" stroke="#AFA9EC" stroke-width="0.5" style="fill:rgb(238, 237, 254);stroke:rgb(175, 169, 236);color:rgb(255, 255, 255);stroke-width:0.5px;stroke-linecap:butt;stroke-linejoin:miter;opacity:1;font-family:&quot;Anthropic Sans&quot;, -apple-system, BlinkMacSystemFont, &quot;Segoe UI&quot;, sans-serif;font-size:16px;font-weight:400;text-anchor:start;dominant-baseline:auto"/>
<path d="M490 240 Q500 224,510 240 Q514 248,520 234 Q524 226,530 240 L538 240 Q548 224,558 240 Q562 248,568 234 Q572 226,578 240 L586 240 Q596 224,606 240" fill="none" stroke="#534AB7" stroke-width="1.2" style="fill:none;stroke:rgb(83, 74, 183);color:rgb(255, 255, 255);stroke-width:1.2px;stroke-linecap:butt;stroke-linejoin:miter;opacity:1;font-family:&quot;Anthropic Sans&quot;, -apple-system, BlinkMacSystemFont, &quot;Segoe UI&quot;, sans-serif;font-size:16px;font-weight:400;text-anchor:start;dominant-baseline:auto"/>
<line x1="476" y1="220" x2="486" y2="220" stroke="#7F77DD" stroke-width="0.8" opacity="0.5" style="fill:rgb(0, 0, 0);stroke:rgb(127, 119, 221);color:rgb(255, 255, 255);stroke-width:0.8px;stroke-linecap:butt;stroke-linejoin:miter;opacity:0.5;font-family:&quot;Anthropic Sans&quot;, -apple-system, BlinkMacSystemFont, &quot;Segoe UI&quot;, sans-serif;font-size:16px;font-weight:400;text-anchor:start;dominant-baseline:auto"/>
<line x1="476" y1="220" x2="480" y2="216" stroke="#7F77DD" stroke-width="0.8" opacity="0.5" style="fill:rgb(0, 0, 0);stroke:rgb(127, 119, 221);color:rgb(255, 255, 255);stroke-width:0.8px;stroke-linecap:butt;stroke-linejoin:miter;opacity:0.5;font-family:&quot;Anthropic Sans&quot;, -apple-system, BlinkMacSystemFont, &quot;Segoe UI&quot;, sans-serif;font-size:16px;font-weight:400;text-anchor:start;dominant-baseline:auto"/>
<line x1="476" y1="220" x2="480" y2="224" stroke="#7F77DD" stroke-width="0.8" opacity="0.5" style="fill:rgb(0, 0, 0);stroke:rgb(127, 119, 221);color:rgb(255, 255, 255);stroke-width:0.8px;stroke-linecap:butt;stroke-linejoin:miter;opacity:0.5;font-family:&quot;Anthropic Sans&quot;, -apple-system, BlinkMacSystemFont, &quot;Segoe UI&quot;, sans-serif;font-size:16px;font-weight:400;text-anchor:start;dominant-baseline:auto"/>
<text x="545" y="278" text-anchor="middle" style="fill:rgb(194, 192, 182);stroke:none;color:rgb(255, 255, 255);stroke-width:1px;stroke-linecap:butt;stroke-linejoin:miter;opacity:1;font-family:&quot;Anthropic Sans&quot;, -apple-system, BlinkMacSystemFont, &quot;Segoe UI&quot;, sans-serif;font-size:12px;font-weight:400;text-anchor:middle;dominant-baseline:auto">Shifted right (+60 ms)</text>

<rect x="466" y="296" width="158" height="52" rx="4" fill="#EEEDFE" stroke="#AFA9EC" stroke-width="0.5" style="fill:rgb(238, 237, 254);stroke:rgb(175, 169, 236);color:rgb(255, 255, 255);stroke-width:0.5px;stroke-linecap:butt;stroke-linejoin:miter;opacity:1;font-family:&quot;Anthropic Sans&quot;, -apple-system, BlinkMacSystemFont, &quot;Segoe UI&quot;, sans-serif;font-size:16px;font-weight:400;text-anchor:start;dominant-baseline:auto"/>
<path d="M480 326 Q490 310,500 326 Q504 334,510 320 Q514 312,520 326 L528 326 Q538 310,548 326 Q552 334,558 320 Q562 312,568 326 L576 326 Q586 310,596 326 Q600 334,606 320 Q610 312,614 326" fill="none" stroke="#534AB7" stroke-width="1.2" style="fill:none;stroke:rgb(83, 74, 183);color:rgb(255, 255, 255);stroke-width:1.2px;stroke-linecap:butt;stroke-linejoin:miter;opacity:1;font-family:&quot;Anthropic Sans&quot;, -apple-system, BlinkMacSystemFont, &quot;Segoe UI&quot;, sans-serif;font-size:16px;font-weight:400;text-anchor:start;dominant-baseline:auto"/>
<line x1="610" y1="306" x2="620" y2="306" stroke="#7F77DD" stroke-width="0.8" opacity="0.5" style="fill:rgb(0, 0, 0);stroke:rgb(127, 119, 221);color:rgb(255, 255, 255);stroke-width:0.8px;stroke-linecap:butt;stroke-linejoin:miter;opacity:0.5;font-family:&quot;Anthropic Sans&quot;, -apple-system, BlinkMacSystemFont, &quot;Segoe UI&quot;, sans-serif;font-size:16px;font-weight:400;text-anchor:start;dominant-baseline:auto"/>
<line x1="620" y1="306" x2="616" y2="302" stroke="#7F77DD" stroke-width="0.8" opacity="0.5" style="fill:rgb(0, 0, 0);stroke:rgb(127, 119, 221);color:rgb(255, 255, 255);stroke-width:0.8px;stroke-linecap:butt;stroke-linejoin:miter;opacity:0.5;font-family:&quot;Anthropic Sans&quot;, -apple-system, BlinkMacSystemFont, &quot;Segoe UI&quot;, sans-serif;font-size:16px;font-weight:400;text-anchor:start;dominant-baseline:auto"/>
<line x1="620" y1="306" x2="616" y2="310" stroke="#7F77DD" stroke-width="0.8" opacity="0.5" style="fill:rgb(0, 0, 0);stroke:rgb(127, 119, 221);color:rgb(255, 255, 255);stroke-width:0.8px;stroke-linecap:butt;stroke-linejoin:miter;opacity:0.5;font-family:&quot;Anthropic Sans&quot;, -apple-system, BlinkMacSystemFont, &quot;Segoe UI&quot;, sans-serif;font-size:16px;font-weight:400;text-anchor:start;dominant-baseline:auto"/>
<text x="545" y="362" text-anchor="middle" style="fill:rgb(194, 192, 182);stroke:none;color:rgb(255, 255, 255);stroke-width:1px;stroke-linecap:butt;stroke-linejoin:miter;opacity:1;font-family:&quot;Anthropic Sans&quot;, -apple-system, BlinkMacSystemFont, &quot;Segoe UI&quot;, sans-serif;font-size:12px;font-weight:400;text-anchor:middle;dominant-baseline:auto">Shifted left (-40 ms)</text>

<line x1="135" y1="370" x2="135" y2="400" stroke="var(--t)" stroke-width="0.5" style="fill:rgb(0, 0, 0);stroke:rgb(156, 154, 146);color:rgb(255, 255, 255);stroke-width:0.5px;stroke-linecap:butt;stroke-linejoin:miter;opacity:1;font-family:&quot;Anthropic Sans&quot;, -apple-system, BlinkMacSystemFont, &quot;Segoe UI&quot;, sans-serif;font-size:16px;font-weight:400;text-anchor:start;dominant-baseline:auto"/>
<line x1="340" y1="370" x2="340" y2="400" stroke="var(--t)" stroke-width="0.5" style="fill:rgb(0, 0, 0);stroke:rgb(156, 154, 146);color:rgb(255, 255, 255);stroke-width:0.5px;stroke-linecap:butt;stroke-linejoin:miter;opacity:1;font-family:&quot;Anthropic Sans&quot;, -apple-system, BlinkMacSystemFont, &quot;Segoe UI&quot;, sans-serif;font-size:16px;font-weight:400;text-anchor:start;dominant-baseline:auto"/>
<line x1="545" y1="370" x2="545" y2="400" stroke="var(--t)" stroke-width="0.5" style="fill:rgb(0, 0, 0);stroke:rgb(156, 154, 146);color:rgb(255, 255, 255);stroke-width:0.5px;stroke-linecap:butt;stroke-linejoin:miter;opacity:1;font-family:&quot;Anthropic Sans&quot;, -apple-system, BlinkMacSystemFont, &quot;Segoe UI&quot;, sans-serif;font-size:16px;font-weight:400;text-anchor:start;dominant-baseline:auto"/>
<line x1="135" y1="400" x2="545" y2="400" stroke="var(--t)" stroke-width="0.5" style="fill:rgb(0, 0, 0);stroke:rgb(156, 154, 146);color:rgb(255, 255, 255);stroke-width:0.5px;stroke-linecap:butt;stroke-linejoin:miter;opacity:1;font-family:&quot;Anthropic Sans&quot;, -apple-system, BlinkMacSystemFont, &quot;Segoe UI&quot;, sans-serif;font-size:16px;font-weight:400;text-anchor:start;dominant-baseline:auto"/>
<line x1="340" y1="400" x2="340" y2="420" marker-end="url(#arrow)" mask="url(#imagine-text-gaps-87gtef)" style="fill:none;stroke:rgb(156, 154, 146);color:rgb(255, 255, 255);stroke-width:1.5px;stroke-linecap:butt;stroke-linejoin:miter;opacity:1;font-family:&quot;Anthropic Sans&quot;, -apple-system, BlinkMacSystemFont, &quot;Segoe UI&quot;, sans-serif;font-size:16px;font-weight:400;text-anchor:start;dominant-baseline:auto"/>

<text x="340" y="416" text-anchor="middle" style="fill:rgb(194, 192, 182);stroke:none;color:rgb(255, 255, 255);stroke-width:1px;stroke-linecap:butt;stroke-linejoin:miter;opacity:1;font-family:&quot;Anthropic Sans&quot;, -apple-system, BlinkMacSystemFont, &quot;Segoe UI&quot;, sans-serif;font-size:12px;font-weight:400;text-anchor:middle;dominant-baseline:auto">All three applied in sequence to one sample</text>

<g onclick="sendPrompt('Why does combining all three augmentations help generalization?')" style="fill:rgb(0, 0, 0);stroke:none;color:rgb(255, 255, 255);stroke-width:1px;stroke-linecap:butt;stroke-linejoin:miter;opacity:1;font-family:&quot;Anthropic Sans&quot;, -apple-system, BlinkMacSystemFont, &quot;Segoe UI&quot;, sans-serif;font-size:16px;font-weight:400;text-anchor:start;dominant-baseline:auto">
  <rect x="140" y="430" width="400" height="56" rx="8" stroke-width="0.5" style="fill:rgb(113, 43, 19);stroke:rgb(240, 153, 123);color:rgb(255, 255, 255);stroke-width:0.5px;stroke-linecap:butt;stroke-linejoin:miter;opacity:1;font-family:&quot;Anthropic Sans&quot;, -apple-system, BlinkMacSystemFont, &quot;Segoe UI&quot;, sans-serif;font-size:16px;font-weight:400;text-anchor:start;dominant-baseline:auto"/>
  <text x="340" y="450" text-anchor="middle" dominant-baseline="central" style="fill:rgb(245, 196, 179);stroke:none;color:rgb(255, 255, 255);stroke-width:1px;stroke-linecap:butt;stroke-linejoin:miter;opacity:1;font-family:&quot;Anthropic Sans&quot;, -apple-system, BlinkMacSystemFont, &quot;Segoe UI&quot;, sans-serif;font-size:14px;font-weight:500;text-anchor:middle;dominant-baseline:central">Augmented sample</text>
  <text x="340" y="468" text-anchor="middle" dominant-baseline="central" style="fill:rgb(240, 153, 123);stroke:none;color:rgb(255, 255, 255);stroke-width:1px;stroke-linecap:butt;stroke-linejoin:miter;opacity:1;font-family:&quot;Anthropic Sans&quot;, -apple-system, BlinkMacSystemFont, &quot;Segoe UI&quot;, sans-serif;font-size:12px;font-weight:400;text-anchor:middle;dominant-baseline:central">Scaled + noisy + shifted variant</text>
</g>

<rect x="40" y="510" width="600" height="90" rx="8" fill="var(--color-background-secondary)" stroke="var(--color-border-tertiary)" stroke-width="0.5" style="fill:rgb(38, 38, 36);stroke:rgba(222, 220, 209, 0.15);color:rgb(255, 255, 255);stroke-width:0.5px;stroke-linecap:butt;stroke-linejoin:miter;opacity:1;font-family:&quot;Anthropic Sans&quot;, -apple-system, BlinkMacSystemFont, &quot;Segoe UI&quot;, sans-serif;font-size:16px;font-weight:400;text-anchor:start;dominant-baseline:auto"/>
<text x="60" y="534" style="fill:rgb(250, 249, 245);stroke:none;color:rgb(255, 255, 255);stroke-width:1px;stroke-linecap:butt;stroke-linejoin:miter;opacity:1;font-family:&quot;Anthropic Sans&quot;, -apple-system, BlinkMacSystemFont, &quot;Segoe UI&quot;, sans-serif;font-size:14px;font-weight:500;text-anchor:start;dominant-baseline:auto">What each transform simulates</text>
<text x="60" y="556" style="fill:rgb(194, 192, 182);stroke:none;color:rgb(255, 255, 255);stroke-width:1px;stroke-linecap:butt;stroke-linejoin:miter;opacity:1;font-family:&quot;Anthropic Sans&quot;, -apple-system, BlinkMacSystemFont, &quot;Segoe UI&quot;, sans-serif;font-size:12px;font-weight:400;text-anchor:start;dominant-baseline:auto">Scaling: electrode contact quality, skin impedance, body size variation</text>
<text x="60" y="572" style="fill:rgb(194, 192, 182);stroke:none;color:rgb(255, 255, 255);stroke-width:1px;stroke-linecap:butt;stroke-linejoin:miter;opacity:1;font-family:&quot;Anthropic Sans&quot;, -apple-system, BlinkMacSystemFont, &quot;Segoe UI&quot;, sans-serif;font-size:12px;font-weight:400;text-anchor:start;dominant-baseline:auto">Noise: recording equipment artifacts, electromagnetic interference</text>
<text x="60" y="588" style="fill:rgb(194, 192, 182);stroke:none;color:rgb(255, 255, 255);stroke-width:1px;stroke-linecap:butt;stroke-linejoin:miter;opacity:1;font-family:&quot;Anthropic Sans&quot;, -apple-system, BlinkMacSystemFont, &quot;Segoe UI&quot;, sans-serif;font-size:12px;font-weight:400;text-anchor:start;dominant-baseline:auto">Time shift: different R-wave trigger points in cardiac cycle</text>

</svg>